<svg width="477" height="492" viewBox="0 0 477 492" fill="none" xmlns="http://www.w3.org/2000/svg">
<path d="M138.548 1.27344C223.749 17.7972 302.169 73.3922 358.102 125.727C386.176 151.994 408.895 177.732 424.293 197.887C431.972 207.938 437.963 216.774 441.899 223.71C443.846 227.142 445.455 230.397 446.482 233.27C446.992 234.696 447.47 236.332 447.693 238.035C447.89 239.539 448.058 242.282 446.783 245.152C444.22 250.917 439.253 255.525 434.513 258.995C429.546 262.631 423.672 265.846 417.861 268.5C412.02 271.167 405.981 273.386 400.554 274.955C395.346 276.461 389.949 277.591 385.644 277.591H379.316L376.607 271.872C346.416 208.136 286.304 161.789 230.619 129.96C221.793 124.915 213.109 120.253 204.714 115.96C286.911 163.454 337.286 226.884 360.423 269.303C361.963 272.126 363.509 275.242 364.22 278.408C365.067 282.181 364.755 286.109 362.633 289.844C360.914 292.87 358.326 295.107 356.474 296.637C355.508 297.435 354.426 298.284 353.347 299.131L353.135 299.298C352.006 300.184 350.81 301.126 349.505 302.187C337.337 313.344 311.571 330.597 280.412 349.827C248.695 369.403 210.514 391.556 173.255 412.382C135.996 433.208 99.5701 452.758 71.35 467.12C57.2539 474.294 45.1149 480.221 35.9056 484.374C31.3152 486.444 27.3253 488.132 24.1224 489.321C22.5267 489.914 20.9975 490.432 19.6107 490.813C18.4293 491.139 16.5814 491.591 14.6449 491.591C9.51035 491.591 5.81236 488.717 3.72106 485.602C1.89002 482.873 1.07197 479.755 0.639025 477.222C-0.250859 472.015 -0.133482 465.312 0.514025 458.036C1.83234 443.222 5.64522 423.089 11.1537 400.899C22.1709 356.519 40.4038 302.207 60.7689 262.982C81.9106 222.262 91.8458 180.906 96.8324 148.746C99.3221 132.689 100.57 118.982 101.379 108.807C101.776 103.816 102.087 99.3952 102.377 96.1934C102.524 94.5741 102.952 93.3848 103.144 92.0908C103.284 91.1462 104.116 88.417 104.13 87.0039C104.144 85.5908 106.883 57.6133 106.883 57.6133C106.972 51.5201 108.77 44.9233 110.987 38.9082C115.481 26.7127 122.893 13.7786 128.297 5.58496L131.981 0L138.548 1.27344Z" fill="white"/>
<path d="M127.644 91.0909C251.645 136.091 300.223 215.486 328.644 267.591C334.644 278.591 340.292 291.091 328.644 300.591C283.792 342.091 39.1447 462.091 22.144 462.091C5.14334 462.091 29.8835 344.172 69.6443 267.591C113.257 183.591 110.347 97.5909 113.257 91.0909C116.168 84.5909 124.961 90.1172 127.644 91.0909Z" fill="#D63D11"/>
<path d="M143.144 20.5908C308.144 52.5908 426.144 223.591 420.144 237.091C414.144 250.591 397.145 267.591 385.644 267.591C322.644 134.591 136.645 77.0909 121.145 67.5909C108.745 59.9909 132.811 36.2575 143.144 20.5908Z" fill="#D63D11"/>
<path d="M394.416 127.591C407.084 127.591 417.03 133.958 423.455 144.665C429.748 154.716 432.166 167.837 432.166 182.591C432.166 185.792 432.035 189.05 431.78 192.364C435.639 191.169 439.723 190.591 443.958 190.591C452.079 190.591 459.901 192.59 466.354 197.641C473.497 203.231 476.708 211.195 476.708 219.841C476.708 229.374 473.476 238.079 466.348 244.658L466.254 244.744L466.16 244.829C462.664 247.921 458.722 250.105 454.488 251.521C459.296 255.793 460.958 261.575 460.958 266.841C460.958 268.656 460.656 271.06 460.337 273.288L460.283 273.676L460.202 274.061C452.768 309.412 448.386 338.709 446.935 362.084V362.09C446.494 369.144 444.23 376.975 437.498 382.123C431.566 386.659 423.96 387.841 416.958 387.841C411.051 387.841 403.405 386.827 397.903 381.505C389.323 385.751 379.934 387.841 369.916 387.841C360.706 387.841 352.079 385.726 344.474 381.082C340.055 378.383 336.213 374.971 332.904 370.973C330.647 372.965 328.347 374.855 326 376.641C316.958 383.521 307.049 387.841 296.484 387.841C288.077 387.841 280.422 384.964 273.82 379.776L273.633 379.63L273.453 379.476C272.018 378.253 270.678 376.947 269.429 375.563C260.821 383.377 250.419 387.841 238.234 387.841C224.576 387.841 212.823 382.682 204.214 372.212C203.801 371.709 203.399 371.199 203.008 370.684C185.523 383.033 162.933 388.591 136.394 388.591C112.858 388.591 92.6534 384.185 76.7837 374.267L76.7388 374.238L76.6929 374.21C59.5247 363.265 51.144 346.304 51.144 325.341C51.144 315.092 52.8621 305.388 57.8569 297.765C63.4133 289.284 72.0058 285.091 81.894 285.091C88.5271 285.091 95.0877 286.852 100.523 291.328C106.121 295.938 109.144 302.334 109.144 309.591C109.144 313.154 108.901 316.583 108.33 319.796C108.225 321.085 108.005 322.387 107.794 323.491C107.698 324.6 107.644 325.799 107.644 327.091C107.644 328.743 108.023 329.623 108.418 330.213C108.861 330.872 109.845 331.918 112.119 333.037C117.482 335.588 126.089 337.341 138.894 337.341C151.805 337.341 160.343 335.036 165.711 331.708C170.391 328.661 172.144 325.219 172.144 320.341C172.144 317.53 171.34 315.631 169.798 313.949L169.716 313.859L169.635 313.769C167.125 310.916 163.869 308.43 159.659 306.389L159.528 306.325L159.399 306.259C154.404 303.685 147.073 300.438 137.232 296.5C124.139 291.397 113.132 286.438 104.353 281.601L104.261 281.55C94.7637 276.207 86.6191 269.011 79.8442 260.107L79.7563 259.992L79.6714 259.874C72.2603 249.629 68.894 237.375 68.894 223.841C68.894 209.6 72.6939 196.554 80.4644 185.103L80.5464 184.983C88.5067 173.553 99.6555 164.987 113.399 159.069L113.454 159.046C127.409 153.12 143.318 150.341 160.894 150.341C174.212 150.341 186.72 152.342 198.299 156.494C210.228 160.601 220.246 167.152 227.828 176.367C236.021 186.111 239.894 197.94 239.894 211.091C239.894 222.428 238.25 232.904 233.462 240.968C228.149 249.916 219.576 254.841 209.144 254.841C202.126 254.841 195.551 252.591 190.171 247.81L190.044 247.696L189.919 247.579C184.842 242.8 181.894 236.536 181.894 229.341C181.894 225.758 182.161 222.283 182.746 218.952C182.969 216.702 183.135 214.899 183.244 213.521C183.302 212.788 183.341 212.209 183.366 211.769C183.378 211.55 183.385 211.382 183.389 211.259C183.394 211.13 183.394 211.08 183.394 211.091C183.394 209.635 183.069 208.848 182.727 208.313C182.344 207.715 181.485 206.746 179.47 205.665C174.84 203.18 168.426 201.591 159.644 201.591C146.537 201.591 138.339 204.073 133.497 207.441L133.452 207.473C129.366 210.287 127.394 213.836 127.394 219.591C127.394 223.242 128.406 225.82 130.206 227.97C133.123 231.225 136.796 234.06 141.382 236.419C146.71 239.159 154.464 242.577 164.82 246.687L164.874 246.708L164.926 246.729C177.801 251.981 188.416 256.836 196.625 261.297C203.15 264.843 208.967 269.298 214.059 274.616C219.011 268.586 224.668 263.3 231.039 258.805C243.185 250.185 256.492 245.591 270.734 245.591C274.81 245.591 282.128 246.195 286.993 251.905C287.716 252.695 288.357 253.537 288.925 254.412C290.021 254.364 291.124 254.341 292.234 254.341C297.383 254.341 303.4 255.195 308.396 258.764C313.448 262.372 315.871 267.573 316.379 272.907C317.708 260.112 319.803 246.556 322.646 232.252L322.653 232.216L322.661 232.18C328.176 205.292 336.272 181.783 347.127 161.852L347.167 161.779C358.444 141.408 373.91 127.591 394.416 127.591ZM257.453 303.421C255.351 306.22 253.452 309.548 251.797 313.487C248.936 320.301 247.484 327.55 247.484 335.341C247.484 336.22 247.526 336.949 247.588 337.546C247.781 337.326 247.994 337.071 248.222 336.774C250.142 334.278 251.979 330.373 253.228 324.429L257.453 303.421ZM401.734 283.727C393.202 299.965 383.219 316.056 371.802 332.004C372.499 334.352 373.178 335.526 373.529 335.988C373.642 336.088 373.721 336.126 373.792 336.155C373.917 336.206 374.316 336.341 375.166 336.341C379.553 336.341 382.984 335.175 385.931 333.014C388.288 331.175 391.216 328.453 394.739 324.742C396.638 310.437 398.967 296.764 401.734 283.727ZM315.2 287.141C314.527 291.462 313.616 296.571 312.523 302.329L312.512 302.387L312.5 302.444C310.037 314.761 308.469 324.212 307.658 331.034C309.882 328.793 312.519 325.948 315.583 322.465C314.965 316.596 314.666 310.466 314.666 304.091C314.666 298.616 314.845 292.965 315.2 287.141ZM418.49 246.866C417.941 248.302 417.379 249.745 416.798 251.194C418.227 250.255 419.746 249.475 421.332 248.833C420.353 248.243 419.403 247.59 418.49 246.866Z" fill="#D63D11"/>
<path d="M136.394 376.591C114.227 376.591 96.4774 372.424 83.144 364.091C69.8107 355.591 63.144 342.674 63.144 325.341C63.144 316.174 64.7274 309.174 67.894 304.341C71.0607 299.508 75.7274 297.091 81.894 297.091C86.394 297.091 90.0607 298.258 92.894 300.591C95.7274 302.924 97.144 305.924 97.144 309.591C97.144 312.924 96.894 315.841 96.394 318.341C96.394 319.008 96.2274 320.174 95.894 321.841C95.7274 323.508 95.644 325.258 95.644 327.091C95.644 334.591 99.394 340.174 106.894 343.841C114.561 347.508 125.227 349.341 138.894 349.341C153.061 349.341 164.144 346.841 172.144 341.841C180.144 336.674 184.144 329.508 184.144 320.341C184.144 314.674 182.311 309.841 178.644 305.841C174.977 301.674 170.394 298.258 164.894 295.591C159.394 292.758 151.644 289.341 141.644 285.341C128.811 280.341 118.311 275.591 110.144 271.091C102.144 266.591 95.2274 260.507 89.394 252.841C83.7274 245.007 80.894 235.341 80.894 223.841C80.894 211.841 84.0607 201.174 90.394 191.841C96.894 182.507 106.144 175.257 118.144 170.091C130.311 164.924 144.561 162.341 160.894 162.341C173.061 162.341 184.227 164.174 194.394 167.841C204.561 171.341 212.644 176.757 218.644 184.091C224.811 191.424 227.894 200.424 227.894 211.091C227.894 221.591 226.311 229.507 223.144 234.841C219.977 240.174 215.311 242.841 209.144 242.841C204.811 242.841 201.144 241.507 198.144 238.841C195.311 236.174 193.894 233.007 193.894 229.341C193.894 226.174 194.144 223.257 194.644 220.591C195.144 215.591 195.394 212.424 195.394 211.091C195.394 204.091 191.977 198.757 185.144 195.091C178.311 191.424 169.811 189.591 159.644 189.591C145.311 189.591 134.311 192.257 126.644 197.591C119.144 202.757 115.394 210.091 115.394 219.591C115.394 225.924 117.311 231.341 121.144 235.841C125.144 240.341 130.061 244.091 135.894 247.091C141.727 250.091 149.894 253.674 160.394 257.841C173.061 263.007 183.227 267.674 190.894 271.841C198.561 276.008 205.061 281.674 210.394 288.841C215.894 296.008 218.644 304.841 218.644 315.341C218.644 335.008 211.144 350.174 196.144 360.841C181.311 371.341 161.394 376.591 136.394 376.591Z" fill="#F4AC3E"/>
<path d="M238.234 375.841C227.901 375.841 219.651 372.091 213.484 364.591C207.317 357.091 204.234 347.258 204.234 335.091C204.234 321.758 207.317 309.174 213.484 297.341C219.651 285.341 227.817 275.758 237.984 268.591C248.317 261.257 259.234 257.591 270.734 257.591C274.401 257.591 276.817 258.341 277.984 259.841C279.317 261.174 280.401 263.674 281.234 267.341C284.734 266.674 288.401 266.341 292.234 266.341C300.401 266.341 304.484 269.257 304.484 275.091C304.484 278.591 303.234 286.924 300.734 300.091C296.901 319.258 294.984 332.591 294.984 340.091C294.984 342.591 295.567 344.591 296.734 346.091C298.067 347.591 299.734 348.341 301.734 348.341C304.901 348.341 308.734 346.341 313.234 342.341C317.734 338.174 323.817 331.508 331.484 322.341C333.484 320.008 335.734 318.841 338.234 318.841C340.401 318.841 342.067 319.841 343.234 321.841C344.567 323.841 345.234 326.591 345.234 330.091C345.234 336.758 343.651 341.924 340.484 345.591C333.651 354.091 326.401 361.258 318.734 367.091C311.067 372.924 303.651 375.841 296.484 375.841C290.984 375.841 285.901 374.008 281.234 370.341C276.734 366.508 273.317 361.341 270.984 354.841C262.317 368.841 251.401 375.841 238.234 375.841ZM247.234 350.591C250.901 350.591 254.401 348.424 257.734 344.091C261.067 339.758 263.484 334.008 264.984 326.841L274.234 280.841C267.234 281.007 260.734 283.674 254.734 288.841C248.901 293.841 244.234 300.508 240.734 308.841C237.234 317.174 235.484 326.008 235.484 335.341C235.484 340.508 236.484 344.341 238.484 346.841C240.651 349.341 243.567 350.591 247.234 350.591Z" fill="#F4AC3E"/>
<path d="M419.666 318.841C421.832 318.841 423.499 319.841 424.666 321.841C425.999 323.841 426.666 326.591 426.666 330.091C426.666 336.758 425.082 341.924 421.916 345.591C414.749 354.424 406.916 361.674 398.416 367.341C390.082 373.008 380.582 375.841 369.916 375.841C355.249 375.841 344.332 369.174 337.166 355.841C330.166 342.508 326.666 325.258 326.666 304.091C326.666 283.758 329.249 260.591 334.416 234.591C339.749 208.591 347.499 186.257 357.666 167.591C367.999 148.924 380.249 139.591 394.416 139.591C402.416 139.591 408.666 143.341 413.166 150.841C417.832 158.174 420.166 168.757 420.166 182.591C420.166 202.424 414.666 225.424 403.666 251.591C392.666 277.757 377.749 303.674 358.916 329.341C360.082 336.174 361.999 341.091 364.666 344.091C367.332 346.924 370.832 348.341 375.166 348.341C381.999 348.341 387.999 346.424 393.166 342.591C398.332 338.591 404.916 331.841 412.916 322.341C414.916 320.008 417.166 318.841 419.666 318.841ZM388.916 164.341C385.082 164.341 380.749 171.257 375.916 185.091C371.082 198.924 366.832 216.091 363.166 236.591C359.499 257.091 357.499 276.758 357.166 295.591C368.999 276.091 378.416 256.591 385.416 237.091C392.416 217.424 395.916 199.507 395.916 183.341C395.916 170.674 393.582 164.341 388.916 164.341Z" fill="#F4AC3E"/>
<path d="M440.958 241.591C433.958 241.591 428.708 240.007 425.208 236.841C421.708 233.507 419.958 228.924 419.958 223.091C419.958 217.257 422.208 212.424 426.708 208.591C431.375 204.591 437.125 202.591 443.958 202.591C450.125 202.591 455.125 204.091 458.958 207.091C462.792 210.091 464.708 214.341 464.708 219.841C464.708 226.507 462.542 231.841 458.208 235.841C453.875 239.674 448.125 241.591 440.958 241.591ZM416.958 375.841C411.625 375.841 407.958 374.758 405.958 372.591C403.958 370.424 402.958 367.008 402.958 362.341C402.958 361.008 403.125 358.674 403.458 355.341C406.125 324.841 410.542 297.091 416.708 272.091C418.042 266.924 420.208 263.341 423.208 261.341C426.375 259.174 431.375 258.091 438.208 258.091C445.375 258.091 448.958 261.007 448.958 266.841C448.958 267.674 448.792 269.257 448.458 271.591C440.958 307.257 436.458 337.174 434.958 361.341C434.625 366.674 433.042 370.424 430.208 372.591C427.375 374.758 422.958 375.841 416.958 375.841Z" fill="#F4AC3E"/>
<path d="M370.84 347.591C372.947 347.591 374.829 348.378 376.332 349.77C376.357 349.792 376.383 349.816 376.408 349.839C378.059 351.361 378.937 353.375 378.937 355.623C378.937 357.925 378.018 359.959 376.686 361.66L376.687 361.661L368.431 372.285L368.43 372.284C368.408 372.313 368.384 372.341 368.361 372.37C369.473 372.907 370.504 373.63 371.429 374.555C372.136 375.249 372.722 376.007 373.198 376.816C373.822 375.208 374.849 373.72 376.442 372.685C378.227 371.51 380.328 371.143 382.333 371.143C383.208 371.143 384.675 371.204 385.986 371.919L386.246 372.071L386.429 372.191C387.3 372.788 387.839 373.547 388.167 374.311C388.711 373.887 389.268 373.505 389.837 373.169L389.857 373.158L389.875 373.147C391.959 371.949 394.21 371.143 396.542 371.143C398.545 371.143 400.782 371.646 402.49 373.354C402.862 373.726 403.174 374.125 403.439 374.539C403.852 373.896 404.359 373.293 404.992 372.787C405.028 372.758 405.066 372.731 405.103 372.703C405.09 372.691 405.076 372.681 405.063 372.669L405.025 372.635L404.988 372.6C403.138 370.838 402.403 368.527 402.403 366.183C402.403 363.499 403.506 361.155 405.537 359.426C407.537 357.715 409.961 356.935 412.546 356.935C414.776 356.935 416.997 357.485 418.852 358.937C420.937 360.568 421.859 362.894 421.859 365.351C421.859 368.013 420.948 370.502 418.908 372.386L418.876 372.415L418.845 372.442C418.196 373.017 417.494 373.477 416.756 373.839C417.485 374.871 417.827 376.091 417.827 377.318C417.827 378.641 417.457 380.927 416.873 383.859C416.958 383.687 417.044 383.513 417.133 383.342C418.979 379.758 421.474 376.801 424.637 374.568C427.887 372.262 431.479 371.015 435.336 371.015C436.422 371.015 438.682 371.162 440.21 372.964C440.297 373.06 440.379 373.157 440.458 373.257C440.542 373.256 440.627 373.255 440.712 373.255C442.274 373.255 444.034 373.626 445.503 374.831L445.793 375.084L446.076 375.36C447.427 376.768 447.913 378.546 447.913 380.199C447.913 381.57 447.637 383.59 447.212 386.01L447.21 386.02L447.209 386.028C446.755 388.546 446.406 390.948 446.162 393.233L446.161 393.24C445.924 395.413 445.8 397.91 445.8 400.743C445.8 402.776 445.397 405.184 443.694 406.998C441.949 408.859 439.535 409.287 437.577 409.287C435.803 409.287 433.841 408.92 432.204 407.703C430.49 408.783 428.546 409.287 426.504 409.287C423.701 409.287 421.213 408.393 419.174 406.693C416.683 408.326 414.047 409.287 411.266 409.287C407.429 409.287 403.999 407.844 401.836 404.528L401.819 404.502L401.803 404.476C400.939 403.105 400.33 401.587 399.932 399.961C399.552 399.99 399.168 400.007 398.782 400.007C395.868 400.007 392.997 399.257 390.821 397.158L390.794 397.133L390.769 397.107C390.141 396.479 389.626 395.794 389.213 395.065C388.422 396.981 387.764 398.999 387.242 401.122C386.756 403.187 386.03 405.393 384.693 406.909L384.692 406.908C383.119 408.696 380.963 409.234 379.091 409.281L375.419 418.852L376.325 408.889C375.638 408.658 374.974 408.321 374.353 407.861C373.846 407.486 373.408 407.059 373.031 406.6C369.706 408.384 366.121 409.287 362.329 409.287C357.725 409.287 353.597 408.169 350.337 405.589C349.422 406.201 348.463 406.762 347.458 407.265L347.457 407.264C343.891 409.068 339.937 409.927 335.684 409.927C332.403 409.927 329.359 409.445 326.647 408.36L326.615 408.348L326.583 408.335C324.856 407.609 323.289 406.679 321.946 405.516C320.998 406.157 320.003 406.742 318.958 407.265L318.957 407.264C315.391 409.068 311.437 409.927 307.184 409.927C303.903 409.927 300.859 409.445 298.147 408.36L298.115 408.348L298.083 408.335C296.678 407.745 295.38 407.018 294.221 406.143C291.497 408.108 288.596 409.287 285.516 409.287C282.552 409.287 279.832 408.425 277.75 406.505C274.99 408.373 271.853 409.287 268.464 409.287C266.275 409.287 264.251 408.748 262.494 407.663C261.382 408.17 260.24 408.563 259.07 408.835C258.406 415.903 257.182 422.055 255.338 427.229C253.174 433.346 249.298 438.215 242.928 438.215C239.523 438.215 236.453 436.898 234.48 433.938C232.771 431.374 232.144 428.188 232.144 424.807C232.144 420.042 233.232 414.7 235.241 408.852L235.244 408.843C237.182 403.242 240.091 397.188 243.917 390.69C243.913 385.049 243.872 381.144 243.794 378.931V378.929C243.705 376.324 244.847 374.074 246.952 372.583C248.791 371.28 250.928 370.759 253.104 370.759C254.346 370.759 256.177 370.99 257.642 372.311C257.759 372.41 257.87 372.513 257.974 372.618C259.848 371.564 261.893 371.015 264.048 371.015C267.698 371.015 270.795 372.566 273.03 375.439C274.242 376.967 275.067 378.694 275.568 380.56C275.818 379.548 276.083 378.559 276.368 377.595C276.833 375.959 277.64 374.068 279.242 372.787C279.278 372.758 279.316 372.731 279.353 372.703C279.34 372.691 279.326 372.681 279.313 372.669L279.275 372.635L279.238 372.6C277.388 370.838 276.653 368.527 276.653 366.183C276.653 363.499 277.756 361.155 279.787 359.426C281.787 357.715 284.211 356.935 286.796 356.935C289.026 356.935 291.247 357.485 293.102 358.937C295.187 360.568 296.109 362.894 296.109 365.351C296.109 367.46 295.534 369.459 294.282 371.136C294.682 371.057 295.1 371.015 295.537 371.015L296.367 371.022C298.36 371.057 300.821 371.212 303.718 371.475C304.431 371.52 305.665 371.604 307.406 371.729C309.121 371.848 310.515 371.905 311.608 371.909C311.653 371.902 311.727 371.89 311.833 371.868C312.112 371.809 312.516 371.709 313.062 371.553L313.217 371.508L313.376 371.477C313.389 371.474 313.458 371.458 313.607 371.419C313.773 371.375 313.995 371.313 314.278 371.232L314.312 371.223L314.346 371.214C315.159 370.997 316.066 370.823 316.976 370.823L317.363 370.835C318.596 370.911 319.689 371.348 320.59 372.04C321.556 371.399 322.716 371.015 324.037 371.015L324.867 371.022C326.86 371.057 329.321 371.212 332.218 371.475C332.931 371.52 334.165 371.604 335.906 371.729C337.621 371.848 339.015 371.905 340.108 371.909C340.153 371.902 340.227 371.89 340.333 371.868C340.612 371.809 341.016 371.709 341.562 371.553L341.717 371.508L341.876 371.477C341.889 371.474 341.958 371.458 342.107 371.419C342.273 371.375 342.495 371.313 342.778 371.232L342.812 371.223L342.846 371.214C343.659 370.997 344.566 370.823 345.476 370.823L345.863 370.835C347.708 370.948 349.243 371.87 350.285 373.247C350.299 373.265 350.312 373.284 350.326 373.302C350.348 373.333 350.373 373.362 350.395 373.394C350.832 373.983 351.142 374.616 351.362 375.26C351.85 374.844 352.362 374.452 352.897 374.085L352.912 374.074L352.927 374.064C354.457 373.035 356.093 372.281 357.814 371.797C357.316 370.92 357.037 369.943 356.992 368.918L356.985 368.615L356.989 368.409C357.029 367.388 357.356 366.473 357.612 365.86L357.632 365.812L363.605 352.454L363.609 352.445C364.203 351.124 365.116 349.818 366.509 348.903C367.805 348.039 369.281 347.591 370.84 347.591ZM320.334 385.355C319.336 386.203 318.175 386.861 316.98 387.384L316.953 387.396C313.276 388.971 310.352 390.616 308.113 392.295L308.078 392.32C307.03 393.089 306.442 393.717 306.137 394.164C306.056 394.283 306.001 394.382 305.962 394.461C306.266 394.599 306.997 394.823 308.464 394.823C310.165 394.823 311.976 394.402 313.933 393.44L313.945 393.435L313.958 393.429C315.83 392.525 317.598 391.114 319.24 389.079L319.277 389.032L319.316 388.987C319.425 388.86 319.54 388.735 319.66 388.613C320.23 387.708 320.909 386.851 321.687 386.044C321.215 385.872 320.761 385.643 320.334 385.355ZM344.494 387.816C341.263 389.264 338.654 390.764 336.613 392.295L336.578 392.32C335.53 393.089 334.942 393.717 334.637 394.164C334.556 394.283 334.501 394.382 334.462 394.461C334.766 394.599 335.497 394.823 336.964 394.823C338.665 394.823 340.476 394.402 342.433 393.44L342.445 393.435L342.458 393.429C343.048 393.144 343.628 392.807 344.197 392.417C344.189 392.165 344.184 391.911 344.184 391.655C344.184 390.349 344.287 389.068 344.494 387.816ZM290.776 385.561L290.772 385.578L290.769 385.596C290.185 388.274 289.803 390.321 289.579 391.806C289.626 391.753 289.674 391.699 289.722 391.646C290.405 389.58 291.585 387.704 293.187 386.044C292.376 385.75 291.621 385.287 290.963 384.645C290.902 384.944 290.841 385.25 290.776 385.561ZM259.769 387.637C259.764 387.984 259.759 388.354 259.754 388.747C259.879 388.26 259.98 387.766 260.048 387.265C259.958 387.383 259.865 387.507 259.769 387.637Z" fill="#D63D11"/>
<path d="M281.008 390.695C281.563 390.695 281.989 390.951 282.288 391.463C282.629 391.975 282.8 392.679 282.8 393.575C282.8 395.281 282.395 396.604 281.584 397.543C279.749 399.804 277.765 401.66 275.632 403.111C273.541 404.561 271.152 405.287 268.464 405.287C266.203 405.287 264.368 404.476 262.96 402.855C260.528 404.433 257.989 405.244 255.344 405.287C254.789 413.521 253.531 420.391 251.568 425.895C249.605 431.441 246.725 434.215 242.928 434.215C240.624 434.215 238.917 433.383 237.808 431.719C236.699 430.055 236.144 427.751 236.144 424.807C236.144 420.625 237.104 415.74 239.024 410.151C240.944 404.604 243.909 398.481 247.92 391.783C247.92 385.553 247.877 381.223 247.792 378.791C247.749 377.553 248.24 376.572 249.264 375.847C250.288 375.121 251.568 374.759 253.104 374.759C254 374.759 254.64 374.951 255.024 375.335C255.451 375.676 255.685 376.38 255.728 377.447C255.728 378.513 255.749 379.303 255.792 379.815C257.157 378.108 258.501 376.892 259.824 376.167C261.147 375.399 262.555 375.015 264.048 375.015C266.437 375.015 268.379 375.975 269.872 377.895C271.408 379.815 272.176 382.332 272.176 385.447C272.176 387.708 271.813 389.905 271.088 392.039C270.363 394.172 269.36 396.113 268.08 397.863C268.976 398.119 269.723 398.247 270.32 398.247C271.728 398.247 273.072 397.735 274.352 396.711C275.632 395.687 277.275 393.98 279.28 391.591C279.792 390.993 280.368 390.695 281.008 390.695ZM255.664 399.143C257.2 398.801 258.608 397.969 259.888 396.647C261.211 395.281 262.256 393.617 263.024 391.655C263.792 389.649 264.176 387.559 264.176 385.383C264.176 384.103 263.92 383.143 263.408 382.503C262.896 381.82 262.213 381.479 261.36 381.479C259.824 381.479 257.968 383.1 255.792 386.343C255.749 388.22 255.728 390.972 255.728 394.599C255.728 396.561 255.707 398.076 255.664 399.143ZM243.44 427.943C244.592 427.943 245.552 425.425 246.32 420.391C247.088 415.399 247.579 409.169 247.792 401.703C245.957 405.969 244.507 410.044 243.44 413.927C242.373 417.809 241.84 421.073 241.84 423.719C241.84 425.084 242.011 426.129 242.352 426.855C242.651 427.58 243.013 427.943 243.44 427.943Z" fill="#682121"/>
<path d="M286.029 370.919C284.237 370.919 282.893 370.513 281.997 369.703C281.101 368.849 280.653 367.676 280.653 366.183C280.653 364.689 281.229 363.452 282.381 362.471C283.575 361.447 285.047 360.935 286.797 360.935C288.375 360.935 289.655 361.319 290.637 362.087C291.618 362.855 292.109 363.943 292.109 365.351C292.109 367.057 291.554 368.423 290.445 369.447C289.335 370.428 287.863 370.919 286.029 370.919ZM285.517 405.287C282.743 405.287 280.717 404.305 279.437 402.343C278.199 400.38 277.581 397.777 277.581 394.535C277.581 392.615 277.815 390.161 278.285 387.175C278.797 384.145 279.437 381.329 280.205 378.727C280.589 377.361 281.101 376.423 281.741 375.911C282.381 375.399 283.405 375.143 284.813 375.143C286.989 375.143 288.077 375.868 288.077 377.319C288.077 378.385 287.671 380.86 286.861 384.743C285.837 389.436 285.325 392.615 285.325 394.279C285.325 395.559 285.495 396.54 285.837 397.223C286.178 397.905 286.754 398.247 287.565 398.247C288.333 398.247 289.293 397.713 290.445 396.647C291.597 395.58 293.133 393.895 295.053 391.591C295.565 390.993 296.141 390.695 296.781 390.695C297.335 390.695 297.762 390.951 298.061 391.463C298.402 391.975 298.573 392.679 298.573 393.575C298.573 395.281 298.167 396.604 297.357 397.543C293.133 402.705 289.186 405.287 285.517 405.287Z" fill="#682121"/>
<path d="M324.081 390.695C324.635 390.695 325.062 390.951 325.361 391.463C325.702 391.975 325.873 392.679 325.873 393.575C325.873 395.153 325.467 396.476 324.657 397.543C322.651 400.145 320.155 402.193 317.169 403.687C314.225 405.18 310.897 405.927 307.185 405.927C304.283 405.927 301.766 405.5 299.633 404.647C297.499 403.751 295.857 402.556 294.705 401.063C293.595 399.527 293.041 397.82 293.041 395.943C293.041 393.127 294.171 390.631 296.433 388.455C298.694 386.279 301.937 384.188 306.161 382.183L295.665 382.439C294.726 382.481 294.001 382.161 293.489 381.479C293.019 380.753 292.785 379.9 292.785 378.919C292.785 377.895 293.019 376.999 293.489 376.231C294.001 375.42 294.683 375.015 295.537 375.015C297.499 375.015 300.123 375.164 303.409 375.463C304.091 375.505 305.329 375.591 307.121 375.719C308.955 375.847 310.491 375.911 311.729 375.911C312.155 375.911 312.966 375.74 314.161 375.399C314.374 375.356 314.779 375.249 315.377 375.079C316.017 374.908 316.55 374.823 316.977 374.823C317.659 374.823 318.214 375.121 318.641 375.719C319.11 376.316 319.345 377.233 319.345 378.471C319.345 379.836 319.025 380.903 318.385 381.671C317.745 382.439 316.742 383.121 315.377 383.719C311.494 385.383 308.273 387.175 305.713 389.095C303.153 390.972 301.873 392.849 301.873 394.727C301.873 395.921 302.427 396.903 303.537 397.671C304.646 398.439 306.289 398.823 308.465 398.823C310.854 398.823 313.265 398.225 315.697 397.031C318.171 395.836 320.39 394.023 322.353 391.591C322.865 390.993 323.441 390.695 324.081 390.695Z" fill="#682121"/>
<path d="M352.581 390.695C353.135 390.695 353.562 390.951 353.861 391.463C354.202 391.975 354.373 392.679 354.373 393.575C354.373 395.153 353.967 396.476 353.157 397.543C351.151 400.145 348.655 402.193 345.669 403.687C342.725 405.18 339.397 405.927 335.685 405.927C332.783 405.927 330.266 405.5 328.133 404.647C325.999 403.751 324.357 402.556 323.205 401.063C322.095 399.527 321.541 397.82 321.541 395.943C321.541 393.127 322.671 390.631 324.933 388.455C327.194 386.279 330.437 384.188 334.661 382.183L324.165 382.439C323.226 382.481 322.501 382.161 321.989 381.479C321.519 380.753 321.285 379.9 321.285 378.919C321.285 377.895 321.519 376.999 321.989 376.231C322.501 375.42 323.183 375.015 324.037 375.015C325.999 375.015 328.623 375.164 331.909 375.463C332.591 375.505 333.829 375.591 335.621 375.719C337.455 375.847 338.991 375.911 340.229 375.911C340.655 375.911 341.466 375.74 342.661 375.399C342.874 375.356 343.279 375.249 343.877 375.079C344.517 374.908 345.05 374.823 345.477 374.823C346.159 374.823 346.714 375.121 347.141 375.719C347.61 376.316 347.845 377.233 347.845 378.471C347.845 379.836 347.525 380.903 346.885 381.671C346.245 382.439 345.242 383.121 343.877 383.719C339.994 385.383 336.773 387.175 334.213 389.095C331.653 390.972 330.373 392.849 330.373 394.727C330.373 395.921 330.927 396.903 332.037 397.671C333.146 398.439 334.789 398.823 336.965 398.823C339.354 398.823 341.765 398.225 344.197 397.031C346.671 395.836 348.89 394.023 350.853 391.591C351.365 390.993 351.941 390.695 352.581 390.695Z" fill="#682121"/>
<path d="M377.689 390.695C378.243 390.695 378.67 390.951 378.969 391.463C379.31 391.975 379.481 392.679 379.481 393.575C379.481 395.281 379.075 396.604 378.265 397.543C376.686 399.463 374.446 401.233 371.545 402.855C368.686 404.476 365.614 405.287 362.329 405.287C357.849 405.287 354.371 404.071 351.897 401.639C349.422 399.207 348.185 395.879 348.185 391.655C348.185 388.711 348.803 385.98 350.041 383.463C351.278 380.903 352.985 378.876 355.161 377.383C357.379 375.889 359.875 375.143 362.649 375.143C365.123 375.143 367.107 375.889 368.601 377.383C370.094 378.833 370.841 380.817 370.841 383.335C370.841 386.279 369.774 388.817 367.641 390.951C365.55 393.041 361.987 394.705 356.953 395.943C358.019 397.905 360.046 398.887 363.033 398.887C364.953 398.887 367.129 398.225 369.561 396.903C372.035 395.537 374.169 393.767 375.961 391.591C376.473 390.993 377.049 390.695 377.689 390.695ZM361.561 381.415C359.982 381.415 358.638 382.332 357.529 384.167C356.462 386.001 355.929 388.22 355.929 390.823V390.951C358.446 390.353 360.43 389.457 361.881 388.263C363.331 387.068 364.057 385.681 364.057 384.103C364.057 383.292 363.822 382.652 363.353 382.183C362.926 381.671 362.329 381.415 361.561 381.415ZM363.225 370.919C362.627 370.919 362.094 370.705 361.625 370.279C361.198 369.809 360.985 369.255 360.985 368.615C360.985 368.316 361.091 367.911 361.305 367.399L367.257 354.087C367.641 353.233 368.131 352.615 368.729 352.231C369.369 351.804 370.073 351.591 370.841 351.591C371.907 351.591 372.846 351.975 373.657 352.743C374.51 353.511 374.937 354.471 374.937 355.623C374.937 356.817 374.467 358.012 373.529 359.207L365.273 369.831C364.718 370.556 364.035 370.919 363.225 370.919Z" fill="#682121"/>
<path d="M378.814 405.287C377.192 405.287 376.04 404.433 375.358 402.727C374.718 401.02 374.398 398.289 374.398 394.535C374.398 388.988 375.187 383.719 376.766 378.727C377.15 377.489 377.768 376.593 378.622 376.039C379.518 375.441 380.755 375.143 382.334 375.143C383.187 375.143 383.784 375.249 384.126 375.463C384.467 375.676 384.638 376.081 384.638 376.679C384.638 377.361 384.318 378.897 383.678 381.287C383.251 382.993 382.91 384.487 382.654 385.767C382.398 387.047 382.184 388.625 382.014 390.503C383.422 386.833 385 383.847 386.75 381.543C388.499 379.239 390.206 377.596 391.87 376.615C393.576 375.633 395.134 375.143 396.542 375.143C399.315 375.143 400.702 376.529 400.702 379.303C400.702 379.857 400.51 381.201 400.126 383.335C399.784 385.041 399.614 386.108 399.614 386.535C399.614 388.028 400.147 388.775 401.214 388.775C402.408 388.775 403.944 387.836 405.822 385.959C406.376 385.404 406.952 385.127 407.55 385.127C408.104 385.127 408.531 385.383 408.83 385.895C409.171 386.364 409.342 387.004 409.342 387.815C409.342 389.393 408.915 390.631 408.062 391.527C406.867 392.764 405.459 393.831 403.838 394.727C402.259 395.58 400.574 396.007 398.782 396.007C396.52 396.007 394.792 395.431 393.598 394.279C392.446 393.127 391.87 391.569 391.87 389.607C391.87 388.967 391.934 388.327 392.062 387.687C392.147 386.833 392.19 386.257 392.19 385.959C392.19 385.276 391.955 384.935 391.486 384.935C390.846 384.935 389.992 385.66 388.926 387.111C387.902 388.519 386.878 390.396 385.854 392.743C384.83 395.089 383.998 397.564 383.358 400.167C382.888 402.172 382.334 403.537 381.694 404.263C381.096 404.945 380.136 405.287 378.814 405.287Z" fill="#682121"/>
<path d="M411.779 370.919C409.987 370.919 408.643 370.513 407.747 369.703C406.851 368.849 406.403 367.676 406.403 366.183C406.403 364.689 406.979 363.452 408.131 362.471C409.325 361.447 410.797 360.935 412.547 360.935C414.125 360.935 415.405 361.319 416.387 362.087C417.368 362.855 417.859 363.943 417.859 365.351C417.859 367.057 417.304 368.423 416.195 369.447C415.085 370.428 413.613 370.919 411.779 370.919ZM411.267 405.287C408.493 405.287 406.467 404.305 405.187 402.343C403.949 400.38 403.331 397.777 403.331 394.535C403.331 392.615 403.565 390.161 404.035 387.175C404.547 384.145 405.187 381.329 405.955 378.727C406.339 377.361 406.851 376.423 407.491 375.911C408.131 375.399 409.155 375.143 410.563 375.143C412.739 375.143 413.827 375.868 413.827 377.319C413.827 378.385 413.421 380.86 412.611 384.743C411.587 389.436 411.075 392.615 411.075 394.279C411.075 395.559 411.245 396.54 411.587 397.223C411.928 397.905 412.504 398.247 413.315 398.247C414.083 398.247 415.043 397.713 416.195 396.647C417.347 395.58 418.883 393.895 420.803 391.591C421.315 390.993 421.891 390.695 422.531 390.695C423.085 390.695 423.512 390.951 423.811 391.463C424.152 391.975 424.323 392.679 424.323 393.575C424.323 395.281 423.917 396.604 423.107 397.543C418.883 402.705 414.936 405.287 411.267 405.287Z" fill="#682121"/>
<path d="M426.505 405.287C424.073 405.287 422.089 404.327 420.553 402.407C419.059 400.487 418.313 397.969 418.313 394.855C418.313 391.441 419.102 388.22 420.681 385.191C422.259 382.119 424.35 379.665 426.953 377.831C429.598 375.953 432.393 375.015 435.337 375.015C436.275 375.015 436.894 375.207 437.193 375.591C437.534 375.932 437.811 376.572 438.025 377.511C438.835 377.34 439.731 377.255 440.713 377.255C441.737 377.255 442.526 377.511 443.081 378.023C443.635 378.535 443.913 379.26 443.913 380.199C443.913 381.18 443.699 382.887 443.273 385.319C442.803 387.921 442.441 390.417 442.185 392.807C441.929 395.153 441.801 397.799 441.801 400.743C441.801 402.364 441.459 403.537 440.777 404.263C440.137 404.945 439.07 405.287 437.577 405.287C436.126 405.287 435.038 404.945 434.313 404.263C433.63 403.537 433.289 402.385 433.289 400.807L433.353 399.783C432.03 403.452 429.747 405.287 426.505 405.287ZM429.001 398.823C430.195 398.823 431.283 397.991 432.265 396.327C433.246 394.663 434.121 391.697 434.889 387.431L436.105 380.967C434.355 381.009 432.734 381.692 431.241 383.015C429.747 384.295 428.553 386.001 427.657 388.135C426.761 390.268 426.313 392.529 426.313 394.919C426.313 396.199 426.547 397.18 427.017 397.863C427.529 398.503 428.19 398.823 429.001 398.823Z" fill="#682121"/>
</svg>
