<svg width="705" height="390" viewBox="0 0 705 390" fill="none" xmlns="http://www.w3.org/2000/svg">
<mask id="path-1-outside-1_2345_38" maskUnits="userSpaceOnUse" x="-0.412598" y="0" width="705" height="390" fill="black">
<rect fill="white" x="-0.412598" width="705" height="390"/>
<path d="M122.2 384.2C86.7332 384.2 58.3332 377.533 36.9999 364.2C15.6666 350.6 4.9999 329.933 4.9999 302.2C4.9999 287.533 7.53324 276.333 12.5999 268.6C17.6666 260.867 25.1332 257 34.9999 257C42.1999 257 48.0666 258.867 52.5999 262.6C57.1332 266.333 59.3999 271.133 59.3999 277C59.3999 282.333 58.9999 287 58.1999 291C58.1999 292.067 57.9332 293.933 57.3999 296.6C57.1332 299.267 56.9999 302.067 56.9999 305C56.9999 317 62.9999 325.933 74.9999 331.8C87.2666 337.667 104.333 340.6 126.2 340.6C148.867 340.6 166.6 336.6 179.4 328.6C192.2 320.333 198.6 308.867 198.6 294.2C198.6 285.133 195.667 277.4 189.8 271C183.933 264.333 176.6 258.867 167.8 254.6C159 250.067 146.6 244.6 130.6 238.2C110.067 230.2 93.2666 222.6 80.1999 215.4C67.3999 208.2 56.3332 198.467 46.9999 186.2C37.9332 173.667 33.3999 158.2 33.3999 139.8C33.3999 120.6 38.4666 103.533 48.5999 88.6C58.9999 73.6666 73.7999 62.0666 92.9999 53.8C112.467 45.5333 135.267 41.4 161.4 41.4C180.867 41.4 198.733 44.3333 215 50.2C231.267 55.8 244.2 64.4666 253.8 76.2C263.667 87.9333 268.6 102.333 268.6 119.4C268.6 136.2 266.067 148.867 261 157.4C255.933 165.933 248.467 170.2 238.6 170.2C231.667 170.2 225.8 168.067 221 163.8C216.467 159.533 214.2 154.467 214.2 148.6C214.2 143.533 214.6 138.867 215.4 134.6C216.2 126.6 216.6 121.533 216.6 119.4C216.6 108.2 211.133 99.6666 200.2 93.8C189.267 87.9333 175.667 85 159.4 85C136.467 85 118.867 89.2667 106.6 97.8C94.5999 106.067 88.5999 117.8 88.5999 133C88.5999 143.133 91.6666 151.8 97.7999 159C104.2 166.2 112.067 172.2 121.4 177C130.733 181.8 143.8 187.533 160.6 194.2C180.867 202.467 197.133 209.933 209.4 216.6C221.667 223.267 232.067 232.333 240.6 243.8C249.4 255.267 253.8 269.4 253.8 286.2C253.8 317.667 241.8 341.933 217.8 359C194.067 375.8 162.2 384.2 122.2 384.2ZM337.144 383C320.61 383 307.41 377 297.544 365C287.677 353 282.744 337.267 282.744 317.8C282.744 296.467 287.677 276.333 297.544 257.4C307.41 238.2 320.477 222.867 336.744 211.4C353.277 199.667 370.744 193.8 389.144 193.8C395.01 193.8 398.877 195 400.744 197.4C402.877 199.533 404.61 203.533 405.944 209.4C411.544 208.333 417.41 207.8 423.544 207.8C436.61 207.8 443.144 212.467 443.144 221.8C443.144 227.4 441.144 240.733 437.144 261.8C431.01 292.467 427.944 313.8 427.944 325.8C427.944 329.8 428.877 333 430.744 335.4C432.877 337.8 435.544 339 438.744 339C443.81 339 449.944 335.8 457.144 329.4C464.344 322.733 474.077 312.067 486.344 297.4C489.544 293.667 493.144 291.8 497.144 291.8C500.61 291.8 503.277 293.4 505.144 296.6C507.277 299.8 508.344 304.2 508.344 309.8C508.344 320.467 505.81 328.733 500.744 334.6C489.81 348.2 478.21 359.667 465.944 369C453.677 378.333 441.81 383 430.344 383C421.544 383 413.41 380.067 405.944 374.2C398.744 368.067 393.277 359.8 389.544 349.4C375.677 371.8 358.21 383 337.144 383ZM351.544 342.6C357.41 342.6 363.01 339.133 368.344 332.2C373.677 325.267 377.544 316.067 379.944 304.6L394.744 231C383.544 231.267 373.144 235.533 363.544 243.8C354.21 251.8 346.744 262.467 341.144 275.8C335.544 289.133 332.744 303.267 332.744 318.2C332.744 326.467 334.344 332.6 337.544 336.6C341.01 340.6 345.677 342.6 351.544 342.6ZM627.434 291.8C630.901 291.8 633.568 293.4 635.434 296.6C637.568 299.8 638.634 304.2 638.634 309.8C638.634 320.467 636.101 328.733 631.034 334.6C619.568 348.733 607.034 360.333 593.434 369.4C580.101 378.467 564.901 383 547.834 383C524.368 383 506.901 372.333 495.434 351C484.234 329.667 478.634 302.067 478.634 268.2C478.634 235.667 482.768 198.6 491.034 157C499.568 115.4 511.968 79.6667 528.234 49.8C544.768 19.9333 564.368 4.99998 587.034 4.99998C599.834 4.99998 609.834 11 617.034 23C624.501 34.7333 628.234 51.6667 628.234 73.8C628.234 105.533 619.434 142.333 601.834 184.2C584.234 226.067 560.368 267.533 530.234 308.6C532.101 319.533 535.168 327.4 539.434 332.2C543.701 336.733 549.301 339 556.234 339C567.168 339 576.768 335.933 585.034 329.8C593.301 323.4 603.834 312.6 616.634 297.4C619.834 293.667 623.434 291.8 627.434 291.8ZM578.234 44.6C572.101 44.6 565.168 55.6667 557.434 77.8C549.701 99.9333 542.901 127.4 537.034 160.2C531.168 193 527.968 224.467 527.434 254.6C546.368 223.4 561.434 192.2 572.634 161C583.834 129.533 589.434 100.867 589.434 75C589.434 54.7333 585.701 44.6 578.234 44.6ZM661.503 168.2C650.303 168.2 641.903 165.667 636.303 160.6C630.703 155.267 627.903 147.933 627.903 138.6C627.903 129.267 631.503 121.533 638.703 115.4C646.17 109 655.37 105.8 666.303 105.8C676.17 105.8 684.17 108.2 690.303 113C696.436 117.8 699.503 124.6 699.503 133.4C699.503 144.067 696.036 152.6 689.103 159C682.17 165.133 672.97 168.2 661.503 168.2ZM623.103 383C614.57 383 608.703 381.267 605.503 377.8C602.303 374.333 600.703 368.867 600.703 361.4C600.703 359.267 600.97 355.533 601.503 350.2C605.77 301.4 612.836 257 622.703 217C624.836 208.733 628.303 203 633.103 199.8C638.17 196.333 646.17 194.6 657.103 194.6C668.57 194.6 674.303 199.267 674.303 208.6C674.303 209.933 674.036 212.467 673.503 216.2C661.503 273.267 654.303 321.133 651.903 359.8C651.37 368.333 648.836 374.333 644.303 377.8C639.77 381.267 632.703 383 623.103 383Z"/>
</mask>
<path d="M122.2 384.2C86.7332 384.2 58.3332 377.533 36.9999 364.2C15.6666 350.6 4.9999 329.933 4.9999 302.2C4.9999 287.533 7.53324 276.333 12.5999 268.6C17.6666 260.867 25.1332 257 34.9999 257C42.1999 257 48.0666 258.867 52.5999 262.6C57.1332 266.333 59.3999 271.133 59.3999 277C59.3999 282.333 58.9999 287 58.1999 291C58.1999 292.067 57.9332 293.933 57.3999 296.6C57.1332 299.267 56.9999 302.067 56.9999 305C56.9999 317 62.9999 325.933 74.9999 331.8C87.2666 337.667 104.333 340.6 126.2 340.6C148.867 340.6 166.6 336.6 179.4 328.6C192.2 320.333 198.6 308.867 198.6 294.2C198.6 285.133 195.667 277.4 189.8 271C183.933 264.333 176.6 258.867 167.8 254.6C159 250.067 146.6 244.6 130.6 238.2C110.067 230.2 93.2666 222.6 80.1999 215.4C67.3999 208.2 56.3332 198.467 46.9999 186.2C37.9332 173.667 33.3999 158.2 33.3999 139.8C33.3999 120.6 38.4666 103.533 48.5999 88.6C58.9999 73.6666 73.7999 62.0666 92.9999 53.8C112.467 45.5333 135.267 41.4 161.4 41.4C180.867 41.4 198.733 44.3333 215 50.2C231.267 55.8 244.2 64.4666 253.8 76.2C263.667 87.9333 268.6 102.333 268.6 119.4C268.6 136.2 266.067 148.867 261 157.4C255.933 165.933 248.467 170.2 238.6 170.2C231.667 170.2 225.8 168.067 221 163.8C216.467 159.533 214.2 154.467 214.2 148.6C214.2 143.533 214.6 138.867 215.4 134.6C216.2 126.6 216.6 121.533 216.6 119.4C216.6 108.2 211.133 99.6666 200.2 93.8C189.267 87.9333 175.667 85 159.4 85C136.467 85 118.867 89.2667 106.6 97.8C94.5999 106.067 88.5999 117.8 88.5999 133C88.5999 143.133 91.6666 151.8 97.7999 159C104.2 166.2 112.067 172.2 121.4 177C130.733 181.8 143.8 187.533 160.6 194.2C180.867 202.467 197.133 209.933 209.4 216.6C221.667 223.267 232.067 232.333 240.6 243.8C249.4 255.267 253.8 269.4 253.8 286.2C253.8 317.667 241.8 341.933 217.8 359C194.067 375.8 162.2 384.2 122.2 384.2ZM337.144 383C320.61 383 307.41 377 297.544 365C287.677 353 282.744 337.267 282.744 317.8C282.744 296.467 287.677 276.333 297.544 257.4C307.41 238.2 320.477 222.867 336.744 211.4C353.277 199.667 370.744 193.8 389.144 193.8C395.01 193.8 398.877 195 400.744 197.4C402.877 199.533 404.61 203.533 405.944 209.4C411.544 208.333 417.41 207.8 423.544 207.8C436.61 207.8 443.144 212.467 443.144 221.8C443.144 227.4 441.144 240.733 437.144 261.8C431.01 292.467 427.944 313.8 427.944 325.8C427.944 329.8 428.877 333 430.744 335.4C432.877 337.8 435.544 339 438.744 339C443.81 339 449.944 335.8 457.144 329.4C464.344 322.733 474.077 312.067 486.344 297.4C489.544 293.667 493.144 291.8 497.144 291.8C500.61 291.8 503.277 293.4 505.144 296.6C507.277 299.8 508.344 304.2 508.344 309.8C508.344 320.467 505.81 328.733 500.744 334.6C489.81 348.2 478.21 359.667 465.944 369C453.677 378.333 441.81 383 430.344 383C421.544 383 413.41 380.067 405.944 374.2C398.744 368.067 393.277 359.8 389.544 349.4C375.677 371.8 358.21 383 337.144 383ZM351.544 342.6C357.41 342.6 363.01 339.133 368.344 332.2C373.677 325.267 377.544 316.067 379.944 304.6L394.744 231C383.544 231.267 373.144 235.533 363.544 243.8C354.21 251.8 346.744 262.467 341.144 275.8C335.544 289.133 332.744 303.267 332.744 318.2C332.744 326.467 334.344 332.6 337.544 336.6C341.01 340.6 345.677 342.6 351.544 342.6ZM627.434 291.8C630.901 291.8 633.568 293.4 635.434 296.6C637.568 299.8 638.634 304.2 638.634 309.8C638.634 320.467 636.101 328.733 631.034 334.6C619.568 348.733 607.034 360.333 593.434 369.4C580.101 378.467 564.901 383 547.834 383C524.368 383 506.901 372.333 495.434 351C484.234 329.667 478.634 302.067 478.634 268.2C478.634 235.667 482.768 198.6 491.034 157C499.568 115.4 511.968 79.6667 528.234 49.8C544.768 19.9333 564.368 4.99998 587.034 4.99998C599.834 4.99998 609.834 11 617.034 23C624.501 34.7333 628.234 51.6667 628.234 73.8C628.234 105.533 619.434 142.333 601.834 184.2C584.234 226.067 560.368 267.533 530.234 308.6C532.101 319.533 535.168 327.4 539.434 332.2C543.701 336.733 549.301 339 556.234 339C567.168 339 576.768 335.933 585.034 329.8C593.301 323.4 603.834 312.6 616.634 297.4C619.834 293.667 623.434 291.8 627.434 291.8ZM578.234 44.6C572.101 44.6 565.168 55.6667 557.434 77.8C549.701 99.9333 542.901 127.4 537.034 160.2C531.168 193 527.968 224.467 527.434 254.6C546.368 223.4 561.434 192.2 572.634 161C583.834 129.533 589.434 100.867 589.434 75C589.434 54.7333 585.701 44.6 578.234 44.6ZM661.503 168.2C650.303 168.2 641.903 165.667 636.303 160.6C630.703 155.267 627.903 147.933 627.903 138.6C627.903 129.267 631.503 121.533 638.703 115.4C646.17 109 655.37 105.8 666.303 105.8C676.17 105.8 684.17 108.2 690.303 113C696.436 117.8 699.503 124.6 699.503 133.4C699.503 144.067 696.036 152.6 689.103 159C682.17 165.133 672.97 168.2 661.503 168.2ZM623.103 383C614.57 383 608.703 381.267 605.503 377.8C602.303 374.333 600.703 368.867 600.703 361.4C600.703 359.267 600.97 355.533 601.503 350.2C605.77 301.4 612.836 257 622.703 217C624.836 208.733 628.303 203 633.103 199.8C638.17 196.333 646.17 194.6 657.103 194.6C668.57 194.6 674.303 199.267 674.303 208.6C674.303 209.933 674.036 212.467 673.503 216.2C661.503 273.267 654.303 321.133 651.903 359.8C651.37 368.333 648.836 374.333 644.303 377.8C639.77 381.267 632.703 383 623.103 383Z" fill="white"/>
<path d="M36.9999 364.2L34.3121 368.416L34.331 368.428L34.3499 368.44L36.9999 364.2ZM12.5999 268.6L8.4176 265.86L12.5999 268.6ZM52.5999 262.6L55.7784 258.74L52.5999 262.6ZM58.1999 291L53.297 290.019L53.1999 290.505V291H58.1999ZM57.3999 296.6L52.497 295.619L52.4491 295.859L52.4247 296.102L57.3999 296.6ZM74.9999 331.8L72.8038 336.292L72.8232 336.301L72.8426 336.311L74.9999 331.8ZM179.4 328.6L182.05 332.84L182.081 332.82L182.113 332.8L179.4 328.6ZM189.8 271L186.046 274.303L186.08 274.341L186.114 274.379L189.8 271ZM167.8 254.6L165.51 259.045L165.564 259.073L165.619 259.099L167.8 254.6ZM130.6 238.2L132.457 233.558L132.436 233.549L132.415 233.541L130.6 238.2ZM80.1999 215.4L77.7486 219.758L77.7677 219.769L77.7869 219.779L80.1999 215.4ZM46.9999 186.2L42.9488 189.131L42.9842 189.18L43.0208 189.228L46.9999 186.2ZM48.5999 88.6L44.4969 85.7425L44.4796 85.7674L44.4625 85.7925L48.5999 88.6ZM92.9999 53.8L91.0455 49.1978L91.0341 49.2026L91.0226 49.2076L92.9999 53.8ZM215 50.2L213.304 54.9034L213.338 54.9158L213.372 54.9277L215 50.2ZM253.8 76.2L249.93 79.3662L249.951 79.3922L249.973 79.418L253.8 76.2ZM221 163.8L217.573 167.441L217.625 167.49L217.678 167.537L221 163.8ZM215.4 134.6L220.314 135.521L220.354 135.311L220.375 135.098L215.4 134.6ZM200.2 93.8L202.564 89.3942V89.3942L200.2 93.8ZM106.6 97.8L109.436 101.918L109.446 101.911L109.455 101.905L106.6 97.8ZM97.7999 159L93.9937 162.242L94.0278 162.282L94.0629 162.322L97.7999 159ZM121.4 177L123.687 172.554L121.4 177ZM160.6 194.2L162.488 189.57L162.466 189.561L162.444 189.553L160.6 194.2ZM240.6 243.8L236.589 246.785L236.611 246.815L236.633 246.844L240.6 243.8ZM217.8 359L220.689 363.081L220.698 363.075L217.8 359ZM122.2 384.2V379.2C87.3038 379.2 59.9264 372.633 39.6499 359.96L36.9999 364.2L34.3499 368.44C56.7401 382.434 86.1627 389.2 122.2 389.2V384.2ZM36.9999 364.2L39.6877 359.984C19.9523 347.403 9.99991 328.421 9.99991 302.2H4.99991H-9.15527e-05C-9.15527e-05 331.446 11.3809 353.797 34.3121 368.416L36.9999 364.2ZM4.99991 302.2H9.99991C9.99991 287.984 12.4773 277.911 16.7822 271.34L12.5999 268.6L8.4176 265.86C2.5892 274.756 -9.15527e-05 287.083 -9.15527e-05 302.2H4.99991ZM12.5999 268.6L16.7822 271.34C20.8532 265.127 26.6839 262 34.9999 262V257V252C23.5826 252 14.48 256.607 8.4176 265.86L12.5999 268.6ZM34.9999 257V262C41.3111 262 45.9722 263.619 49.4214 266.46L52.5999 262.6L55.7784 258.74C50.161 254.114 43.0887 252 34.9999 252V257ZM52.5999 262.6L49.4214 266.46C52.8028 269.244 54.3999 272.629 54.3999 277H59.3999H64.3999C64.3999 269.637 61.4637 263.422 55.7784 258.74L52.5999 262.6ZM59.3999 277H54.3999C54.3999 282.098 54.0163 286.423 53.297 290.019L58.1999 291L63.1028 291.981C63.9836 287.577 64.3999 282.568 64.3999 277H59.3999ZM58.1999 291H53.1999C53.1999 291.511 53.0349 292.93 52.497 295.619L57.3999 296.6L62.3028 297.581C62.8316 294.937 63.1999 292.622 63.1999 291H58.1999ZM57.3999 296.6L52.4247 296.102C52.1401 298.949 51.9999 301.916 51.9999 305H56.9999H61.9999C61.9999 302.217 62.1264 299.584 62.3751 297.098L57.3999 296.6ZM56.9999 305H51.9999C51.9999 311.874 53.7329 318.103 57.3492 323.488C60.9447 328.841 66.2026 333.065 72.8038 336.292L74.9999 331.8L77.196 327.308C71.7972 324.669 68.0551 321.492 65.6506 317.912C63.2669 314.363 61.9999 310.126 61.9999 305H56.9999ZM74.9999 331.8L72.8426 336.311C86.0706 342.637 103.99 345.6 126.2 345.6V340.6V335.6C104.677 335.6 88.4625 332.696 77.1572 327.289L74.9999 331.8ZM126.2 340.6V345.6C149.366 345.6 168.151 341.527 182.05 332.84L179.4 328.6L176.75 324.36C165.048 331.673 148.368 335.6 126.2 335.6V340.6ZM179.4 328.6L182.113 332.8C196.272 323.656 203.6 310.642 203.6 294.2H198.6H193.6C193.6 307.091 188.128 317.011 176.687 324.4L179.4 328.6ZM198.6 294.2H203.6C203.6 283.943 200.238 274.987 193.486 267.621L189.8 271L186.114 274.379C191.095 279.812 193.6 286.323 193.6 294.2H198.6ZM189.8 271L193.553 267.697C187.205 260.483 179.319 254.628 169.981 250.101L167.8 254.6L165.619 259.099C173.881 263.105 180.662 268.184 186.046 274.303L189.8 271ZM167.8 254.6L170.09 250.155C161.083 245.515 148.514 239.98 132.457 233.558L130.6 238.2L128.743 242.842C144.686 249.22 156.917 254.618 165.51 259.045L167.8 254.6ZM130.6 238.2L132.415 233.541C112 225.587 95.4193 218.077 82.6129 211.021L80.1999 215.4L77.7869 219.779C91.1138 227.123 108.133 234.813 128.785 242.859L130.6 238.2ZM80.1999 215.4L82.6512 211.042C70.4752 204.193 59.9201 194.923 50.979 183.172L46.9999 186.2L43.0208 189.228C52.7464 202.01 64.3246 212.207 77.7486 219.758L80.1999 215.4ZM46.9999 186.2L51.051 183.269C42.7112 171.741 38.3999 157.352 38.3999 139.8H33.3999H28.3999C28.3999 159.048 33.1552 175.592 42.9488 189.131L46.9999 186.2ZM33.3999 139.8H38.3999C38.3999 121.534 43.2027 105.458 52.7373 91.4075L48.5999 88.6L44.4625 85.7925C33.7304 101.608 28.3999 119.666 28.3999 139.8H33.3999ZM48.5999 88.6L52.7029 91.4575C62.4945 77.3978 76.5036 66.3463 94.9772 58.3924L92.9999 53.8L91.0226 49.2076C71.0962 57.787 55.5053 69.9355 44.4969 85.7425L48.5999 88.6ZM92.9999 53.8L94.9543 58.4022C113.676 50.4521 135.785 46.4 161.4 46.4V41.4V36.4C134.749 36.4 111.258 40.6146 91.0455 49.1978L92.9999 53.8ZM161.4 41.4V46.4C180.36 46.4 197.645 49.256 213.304 54.9034L215 50.2L216.696 45.4965C199.822 39.4106 181.373 36.4 161.4 36.4V41.4ZM215 50.2L213.372 54.9277C228.882 60.2672 240.994 68.4446 249.93 79.3662L253.8 76.2L257.67 73.0338C247.406 60.4887 233.651 51.3328 216.627 45.4723L215 50.2ZM253.8 76.2L249.973 79.418C258.995 90.147 263.6 103.368 263.6 119.4H268.6H273.6C273.6 101.298 268.338 85.7197 257.627 72.982L253.8 76.2ZM268.6 119.4H263.6C263.6 135.851 261.092 147.451 256.701 154.847L261 157.4L265.299 159.953C271.041 150.282 273.6 136.549 273.6 119.4H268.6ZM261 157.4L256.701 154.847C252.528 161.874 246.689 165.2 238.6 165.2V170.2V175.2C250.244 175.2 259.338 169.992 265.299 159.953L261 157.4ZM238.6 170.2V165.2C232.785 165.2 228.13 163.448 224.322 160.063L221 163.8L217.678 167.537C223.469 172.685 230.548 175.2 238.6 175.2V170.2ZM221 163.8L224.427 160.159C220.829 156.772 219.2 152.996 219.2 148.6H214.2H209.2C209.2 155.937 212.105 162.294 217.573 167.441L221 163.8ZM214.2 148.6H219.2C219.2 143.793 219.58 139.439 220.314 135.521L215.4 134.6L210.486 133.679C209.62 138.294 209.2 143.274 209.2 148.6H214.2ZM215.4 134.6L220.375 135.098C221.167 127.18 221.6 121.837 221.6 119.4H216.6H211.6C211.6 121.23 211.233 126.02 210.425 134.102L215.4 134.6ZM216.6 119.4H221.6C221.6 112.948 220.013 107.058 216.71 101.903C213.425 96.7743 208.615 92.6408 202.564 89.3942L200.2 93.8L197.836 98.2058C202.719 100.826 206.109 103.892 208.29 107.297C210.454 110.675 211.6 114.652 211.6 119.4H216.6ZM200.2 93.8L202.564 89.3942C190.713 83.035 176.244 80 159.4 80V85V90C175.09 90 187.82 92.8317 197.836 98.2058L200.2 93.8ZM159.4 85V80C135.956 80 117.188 84.3435 103.745 93.6955L106.6 97.8L109.455 101.905C120.545 94.1898 136.978 90 159.4 90V85ZM106.6 97.8L103.763 93.6825C90.3408 102.929 83.5999 116.24 83.5999 133H88.5999H93.5999C93.5999 119.36 98.859 109.204 109.436 101.918L106.6 97.8ZM88.5999 133H83.5999C83.5999 144.23 87.0323 154.07 93.9937 162.242L97.7999 159L101.606 155.758C96.3008 149.53 93.5999 142.037 93.5999 133H88.5999ZM97.7999 159L94.0629 162.322C100.908 170.023 109.28 176.39 119.113 181.446L121.4 177L123.687 172.554C114.853 168.01 107.492 162.377 101.537 155.678L97.7999 159ZM121.4 177L119.113 181.446C128.657 186.355 141.896 192.157 158.756 198.847L160.6 194.2L162.444 189.553C145.704 182.91 132.809 177.245 123.687 172.554L121.4 177ZM160.6 194.2L158.711 198.83C178.892 207.061 194.971 214.449 207.012 220.993L209.4 216.6L211.787 212.207C199.295 205.418 182.842 197.872 162.488 189.57L160.6 194.2ZM209.4 216.6L207.012 220.993C218.627 227.305 228.478 235.886 236.589 246.785L240.6 243.8L244.611 240.815C235.656 228.781 224.706 219.228 211.787 212.207L209.4 216.6ZM240.6 243.8L236.633 246.844C244.658 257.301 248.8 270.315 248.8 286.2H253.8H258.8C258.8 268.485 254.142 253.233 244.566 240.756L240.6 243.8ZM253.8 286.2H248.8C248.8 316.178 237.481 338.87 214.902 354.925L217.8 359L220.698 363.075C246.119 344.997 258.8 319.155 258.8 286.2H253.8ZM217.8 359L214.911 354.919C192.287 370.934 161.544 379.2 122.2 379.2V384.2V389.2C162.856 389.2 195.847 380.666 220.689 363.081L217.8 359ZM297.544 365L301.406 361.824L297.544 365ZM297.544 257.4L301.978 259.711L301.984 259.698L301.991 259.685L297.544 257.4ZM336.744 211.4L339.624 215.487L339.631 215.482L339.637 215.478L336.744 211.4ZM400.744 197.4L396.797 200.47L396.988 200.715L397.208 200.936L400.744 197.4ZM405.944 209.4L401.068 210.508L402.138 215.215L406.879 214.312L405.944 209.4ZM437.144 261.8L442.047 262.781L442.051 262.757L442.056 262.733L437.144 261.8ZM430.744 335.4L426.797 338.47L426.898 338.599L427.007 338.722L430.744 335.4ZM457.144 329.4L460.465 333.137L460.503 333.103L460.541 333.069L457.144 329.4ZM486.344 297.4L482.547 294.146L482.528 294.169L482.508 294.192L486.344 297.4ZM505.144 296.6L500.825 299.119L500.9 299.249L500.983 299.374L505.144 296.6ZM500.744 334.6L496.96 331.332L496.902 331.399L496.847 331.467L500.744 334.6ZM465.944 369L468.971 372.979L465.944 369ZM405.944 374.2L402.701 378.006L402.777 378.07L402.855 378.132L405.944 374.2ZM389.544 349.4L394.25 347.711L390.748 337.956L385.292 346.768L389.544 349.4ZM368.344 332.2L364.381 329.151V329.151L368.344 332.2ZM379.944 304.6L384.838 305.624L384.842 305.605L384.846 305.586L379.944 304.6ZM394.744 231L399.646 231.986L400.879 225.852L394.625 226.001L394.744 231ZM363.544 243.8L366.798 247.596L366.806 247.589L363.544 243.8ZM341.144 275.8L345.754 277.736L341.144 275.8ZM337.544 336.6L333.639 339.723L333.701 339.8L333.765 339.875L337.544 336.6ZM337.144 383V378C321.996 378 310.255 372.587 301.406 361.824L297.544 365L293.682 368.176C304.566 381.413 319.225 388 337.144 388V383ZM297.544 365L301.406 361.824C292.445 350.927 287.744 336.409 287.744 317.8H282.744H277.744C277.744 338.124 282.908 355.073 293.682 368.176L297.544 365ZM282.744 317.8H287.744C287.744 297.272 292.483 277.931 301.978 259.711L297.544 257.4L293.11 255.089C282.871 274.736 277.744 295.661 277.744 317.8H282.744ZM297.544 257.4L301.991 259.685C311.52 241.141 324.073 226.449 339.624 215.487L336.744 211.4L333.863 207.313C316.881 219.284 303.3 235.259 293.096 255.115L297.544 257.4ZM336.744 211.4L339.637 215.478C355.415 204.28 371.886 198.8 389.144 198.8V193.8V188.8C369.601 188.8 351.139 195.053 333.85 207.322L336.744 211.4ZM389.144 193.8V198.8C394.785 198.8 396.466 200.044 396.797 200.47L400.744 197.4L404.69 194.33C401.288 189.956 395.236 188.8 389.144 188.8V193.8ZM400.744 197.4L397.208 200.936C398.284 202.012 399.773 204.808 401.068 210.508L405.944 209.4L410.819 208.292C409.448 202.258 407.47 197.055 404.279 193.864L400.744 197.4ZM405.944 209.4L406.879 214.312C412.149 213.308 417.701 212.8 423.544 212.8V207.8V202.8C417.12 202.8 410.939 203.359 405.008 204.488L405.944 209.4ZM423.544 207.8V212.8C429.633 212.8 433.302 213.915 435.337 215.369C437.063 216.601 438.144 218.448 438.144 221.8H443.144H448.144C448.144 215.819 445.957 210.665 441.15 207.231C436.652 204.019 430.521 202.8 423.544 202.8V207.8ZM443.144 221.8H438.144C438.144 226.826 436.262 239.64 432.231 260.867L437.144 261.8L442.056 262.733C446.025 241.827 448.144 227.974 448.144 221.8H443.144ZM437.144 261.8L432.241 260.819C426.114 291.455 422.944 313.241 422.944 325.8H427.944H432.944C432.944 314.359 435.907 293.478 442.047 262.781L437.144 261.8ZM427.944 325.8H422.944C422.944 330.56 424.059 334.95 426.797 338.47L430.744 335.4L434.69 332.33C433.695 331.05 432.944 329.04 432.944 325.8H427.944ZM430.744 335.4L427.007 338.722C430.085 342.185 434.11 344 438.744 344V339V334C436.978 334 435.669 333.415 434.481 332.078L430.744 335.4ZM438.744 339V344C445.742 344 453.072 339.709 460.465 333.137L457.144 329.4L453.822 325.663C446.815 331.891 441.879 334 438.744 334V339ZM457.144 329.4L460.541 333.069C467.981 326.18 477.878 315.315 490.179 300.608L486.344 297.4L482.508 294.192C470.276 308.818 460.707 319.287 453.747 325.731L457.144 329.4ZM486.344 297.4L490.14 300.654C492.627 297.752 494.932 296.8 497.144 296.8V291.8V286.8C491.355 286.8 486.46 289.581 482.547 294.146L486.344 297.4ZM497.144 291.8V296.8C498.688 296.8 499.779 297.327 500.825 299.119L505.144 296.6L509.463 294.081C506.775 289.473 502.533 286.8 497.144 286.8V291.8ZM505.144 296.6L500.983 299.374C502.372 301.457 503.344 304.76 503.344 309.8H508.344H513.344C513.344 303.64 512.182 298.143 509.304 293.826L505.144 296.6ZM508.344 309.8H503.344C503.344 319.718 500.99 326.665 496.96 331.332L500.744 334.6L504.528 337.868C510.63 330.802 513.344 321.215 513.344 309.8H508.344ZM500.744 334.6L496.847 331.467C486.135 344.792 474.82 355.963 462.916 365.021L465.944 369L468.971 372.979C481.6 363.37 493.486 351.608 504.641 337.733L500.744 334.6ZM465.944 369L462.916 365.021C451.223 373.918 440.394 378 430.344 378V383V388C443.226 388 456.131 382.749 468.971 372.979L465.944 369ZM430.344 383V378C422.755 378 415.693 375.501 409.033 370.268L405.944 374.2L402.855 378.132C411.128 384.632 420.332 388 430.344 388V383ZM405.944 374.2L409.186 370.394C402.755 364.915 397.738 357.429 394.25 347.711L389.544 349.4L384.838 351.089C388.816 362.171 394.733 371.218 402.701 378.006L405.944 374.2ZM389.544 349.4L385.292 346.768C372.075 368.12 356.033 378 337.144 378V383V388C360.388 388 379.279 375.48 393.795 352.032L389.544 349.4ZM351.544 342.6V347.6C359.61 347.6 366.508 342.787 372.307 335.249L368.344 332.2L364.381 329.151C359.513 335.479 355.211 337.6 351.544 337.6V342.6ZM368.344 332.2L372.307 335.249C378.227 327.553 382.333 317.589 384.838 305.624L379.944 304.6L375.05 303.576C372.754 314.544 369.127 322.981 364.381 329.151L368.344 332.2ZM379.944 304.6L384.846 305.586L399.646 231.986L394.744 231L389.842 230.014L375.042 303.614L379.944 304.6ZM394.744 231L394.625 226.001C382.118 226.299 370.636 231.094 360.281 240.011L363.544 243.8L366.806 247.589C375.651 239.972 384.97 236.234 394.863 235.999L394.744 231ZM363.544 243.8L360.29 240.004C350.27 248.592 342.382 259.939 336.534 273.864L341.144 275.8L345.754 277.736C351.105 264.994 358.15 255.008 366.798 247.596L363.544 243.8ZM341.144 275.8L336.534 273.864C330.668 287.83 327.744 302.624 327.744 318.2H332.744H337.744C337.744 303.909 340.419 290.436 345.754 277.736L341.144 275.8ZM332.744 318.2H327.744C327.744 326.954 329.41 334.437 333.639 339.723L337.544 336.6L341.448 333.477C339.277 330.763 337.744 325.979 337.744 318.2H332.744ZM337.544 336.6L333.765 339.875C338.291 345.097 344.403 347.6 351.544 347.6V342.6V337.6C346.951 337.6 343.729 336.103 341.322 333.325L337.544 336.6ZM635.434 296.6L631.115 299.119L631.191 299.249L631.274 299.374L635.434 296.6ZM631.034 334.6L627.25 331.332L627.2 331.39L627.151 331.45L631.034 334.6ZM593.434 369.4L590.661 365.24L590.642 365.252L590.623 365.265L593.434 369.4ZM495.434 351L491.007 353.324L491.019 353.346L491.03 353.367L495.434 351ZM491.034 157L486.136 155.995L486.133 156.01L486.13 156.025L491.034 157ZM528.234 49.8L523.86 47.3784L523.852 47.3934L523.843 47.4085L528.234 49.8ZM617.034 23L612.747 25.5725L612.781 25.6289L612.816 25.6844L617.034 23ZM601.834 184.2L597.225 182.262L601.834 184.2ZM530.234 308.6L526.203 305.642L524.949 307.351L525.306 309.441L530.234 308.6ZM539.434 332.2L535.697 335.522L535.745 335.575L535.793 335.627L539.434 332.2ZM585.034 329.8L588.013 333.815L588.055 333.785L588.095 333.754L585.034 329.8ZM616.634 297.4L612.838 294.146L612.824 294.163L612.81 294.179L616.634 297.4ZM557.434 77.8L552.714 76.1508L557.434 77.8ZM537.034 160.2L532.112 159.32L537.034 160.2ZM527.434 254.6L522.435 254.512L522.108 273.016L531.709 257.194L527.434 254.6ZM572.634 161L577.34 162.689L577.345 162.677L572.634 161ZM627.434 291.8V296.8C628.979 296.8 630.07 297.327 631.115 299.119L635.434 296.6L639.753 294.081C637.065 289.473 632.823 286.8 627.434 286.8V291.8ZM635.434 296.6L631.274 299.374C632.663 301.457 633.634 304.76 633.634 309.8H638.634H643.634C643.634 303.64 642.472 298.143 639.595 293.827L635.434 296.6ZM638.634 309.8H633.634C633.634 319.718 631.281 326.665 627.25 331.332L631.034 334.6L634.818 337.868C640.921 330.802 643.634 321.215 643.634 309.8H638.634ZM631.034 334.6L627.151 331.45C615.966 345.236 603.798 356.482 590.661 365.24L593.434 369.4L596.208 373.56C610.271 364.185 623.169 352.23 634.917 337.75L631.034 334.6ZM593.434 369.4L590.623 365.265C578.168 373.734 563.96 378 547.834 378V383V388C565.842 388 582.034 383.199 596.246 373.535L593.434 369.4ZM547.834 383V378C536.883 378 527.579 375.52 519.74 370.733C511.893 365.94 505.229 358.662 499.838 348.633L495.434 351L491.03 353.367C497.106 364.671 504.909 373.393 514.528 379.267C524.156 385.147 535.319 388 547.834 388V383ZM495.434 351L499.861 348.676C489.159 328.291 483.634 301.566 483.634 268.2H478.634H473.634C473.634 302.567 479.31 331.043 491.007 353.324L495.434 351ZM478.634 268.2H483.634C483.634 236.075 487.717 199.344 495.938 157.975L491.034 157L486.13 156.025C477.818 197.856 473.634 235.258 473.634 268.2H478.634ZM491.034 157L495.932 158.005C504.39 116.775 516.646 81.5312 532.625 52.1915L528.234 49.8L523.843 47.4085C507.29 77.8021 494.745 114.025 486.136 155.995L491.034 157ZM528.234 49.8L532.609 52.2215C548.749 23.0652 567.009 9.99998 587.034 9.99998V4.99998V-2.28882e-05C561.726 -2.28882e-05 540.786 16.8014 523.86 47.3784L528.234 49.8ZM587.034 4.99998V9.99998C597.889 9.99998 606.349 14.9091 612.747 25.5725L617.034 23L621.322 20.4275C613.32 7.0909 601.78 -2.28882e-05 587.034 -2.28882e-05V4.99998ZM617.034 23L612.816 25.6844C619.553 36.2713 623.234 52.1046 623.234 73.8H628.234H633.234C633.234 51.2287 629.449 33.1954 621.253 20.3156L617.034 23ZM628.234 73.8H623.234C623.234 104.646 614.67 140.765 597.225 182.262L601.834 184.2L606.444 186.138C624.199 143.901 633.234 106.42 633.234 73.8H628.234ZM601.834 184.2L597.225 182.262C579.794 223.727 556.132 264.854 526.203 305.642L530.234 308.6L534.266 311.558C564.603 270.213 588.674 228.407 606.444 186.138L601.834 184.2ZM530.234 308.6L525.306 309.441C527.229 320.707 530.505 329.681 535.697 335.522L539.434 332.2L543.171 328.878C539.83 325.119 536.973 318.359 535.163 307.759L530.234 308.6ZM539.434 332.2L535.793 335.627C541.117 341.284 548.096 344 556.234 344V339V334C550.506 334 546.284 332.183 543.075 328.773L539.434 332.2ZM556.234 339V344C568.17 344 578.83 340.629 588.013 333.815L585.034 329.8L582.055 325.785C574.705 331.237 566.166 334 556.234 334V339ZM585.034 329.8L588.095 333.754C596.79 327.022 607.596 315.896 620.459 300.621L616.634 297.4L612.81 294.179C600.073 309.304 589.812 319.778 581.973 325.846L585.034 329.8ZM616.634 297.4L620.431 300.654C622.918 297.752 625.223 296.8 627.434 296.8V291.8V286.8C621.646 286.8 616.751 289.581 612.838 294.146L616.634 297.4ZM578.234 44.6V39.6C575.124 39.6 572.435 41.0118 570.253 42.8595C568.077 44.702 566.076 47.2463 564.197 50.2454C560.435 56.2504 556.623 64.9629 552.714 76.1508L557.434 77.8L562.154 79.4492C565.979 68.5037 569.5 60.6162 572.671 55.5546C574.259 53.0204 575.625 51.4147 576.716 50.4904C577.246 50.041 577.643 49.8122 577.898 49.7006C578.023 49.6464 578.108 49.622 578.158 49.6109C578.207 49.6002 578.23 49.6 578.234 49.6V44.6ZM557.434 77.8L552.714 76.1508C544.865 98.6146 538.008 126.358 532.112 159.32L537.034 160.2L541.956 161.08C547.794 128.442 554.537 101.252 562.154 79.4492L557.434 77.8ZM537.034 160.2L532.112 159.32C526.204 192.354 522.974 224.087 522.435 254.512L527.434 254.6L532.433 254.688C532.962 224.847 536.131 193.646 541.956 161.08L537.034 160.2ZM527.434 254.6L531.709 257.194C550.799 225.736 566.016 194.234 577.34 162.689L572.634 161L567.928 159.311C556.852 190.166 541.937 221.064 523.16 252.006L527.434 254.6ZM572.634 161L577.345 162.677C588.683 130.82 594.434 101.577 594.434 75H589.434H584.434C584.434 100.156 578.985 128.246 567.924 159.323L572.634 161ZM589.434 75H594.434C594.434 64.7003 593.504 56.384 591.326 50.4715C590.226 47.485 588.69 44.7836 586.489 42.7923C584.181 40.7044 581.356 39.6 578.234 39.6V44.6V49.6C578.846 49.6 579.287 49.7623 579.78 50.2077C580.379 50.7497 581.176 51.8483 581.943 53.9285C583.498 58.1493 584.434 65.033 584.434 75H589.434ZM636.303 160.6L632.855 164.221L632.901 164.265L632.948 164.308L636.303 160.6ZM638.703 115.4L641.945 119.206L641.951 119.201L641.957 119.196L638.703 115.4ZM690.303 113L687.221 116.938L690.303 113ZM689.103 159L692.416 162.745L692.456 162.71L692.494 162.674L689.103 159ZM605.503 377.8L609.177 374.409L605.503 377.8ZM601.503 350.2L606.478 350.698L606.481 350.667L606.484 350.635L601.503 350.2ZM622.703 217L617.862 215.751L617.855 215.777L617.849 215.803L622.703 217ZM633.103 199.8L635.877 203.96L635.902 203.944L635.926 203.927L633.103 199.8ZM673.503 216.2L678.396 217.229L678.43 217.069L678.453 216.907L673.503 216.2ZM651.903 359.8L656.893 360.112L656.893 360.11L651.903 359.8ZM644.303 377.8L647.34 381.772L644.303 377.8ZM661.503 168.2V163.2C650.957 163.2 643.981 160.804 639.658 156.892L636.303 160.6L632.948 164.308C639.825 170.53 649.649 173.2 661.503 173.2V168.2ZM636.303 160.6L639.751 156.979C635.343 152.781 632.903 146.87 632.903 138.6H627.903H622.903C622.903 148.997 626.063 157.752 632.855 164.221L636.303 160.6ZM627.903 138.6H632.903C632.903 130.754 635.843 124.404 641.945 119.206L638.703 115.4L635.461 111.594C627.163 118.662 622.903 127.779 622.903 138.6H627.903ZM638.703 115.4L641.957 119.196C648.415 113.661 656.42 110.8 666.303 110.8V105.8V100.8C654.319 100.8 643.925 104.339 635.449 111.604L638.703 115.4ZM666.303 105.8V110.8C675.355 110.8 682.18 112.992 687.221 116.938L690.303 113L693.385 109.062C686.16 103.408 676.984 100.8 666.303 100.8V105.8ZM690.303 113L687.221 116.938C691.976 120.658 694.503 125.911 694.503 133.4H699.503H704.503C704.503 123.289 700.897 114.942 693.385 109.062L690.303 113ZM699.503 133.4H694.503C694.503 142.872 691.481 150.001 685.712 155.326L689.103 159L692.494 162.674C700.592 155.199 704.503 145.261 704.503 133.4H699.503ZM689.103 159L685.79 155.255C679.975 160.399 672.052 163.2 661.503 163.2V168.2V173.2C673.887 173.2 684.364 169.867 692.416 162.745L689.103 159ZM623.103 383V378C614.924 378 610.902 376.277 609.177 374.409L605.503 377.8L601.829 381.191C606.504 386.256 614.215 388 623.103 388V383ZM605.503 377.8L609.177 374.409C607.208 372.276 605.703 368.309 605.703 361.4H600.703H595.703C595.703 369.424 597.398 376.391 601.829 381.191L605.503 377.8ZM600.703 361.4H605.703C605.703 359.545 605.944 356.039 606.478 350.698L601.503 350.2L596.528 349.702C595.995 355.028 595.703 358.988 595.703 361.4H600.703ZM601.503 350.2L606.484 350.635C610.732 302.046 617.763 257.906 627.557 218.197L622.703 217L617.849 215.803C607.91 256.094 600.807 300.754 596.522 349.764L601.503 350.2ZM622.703 217L627.544 218.249C629.514 210.615 632.496 206.214 635.877 203.96L633.103 199.8L630.33 195.64C624.11 199.786 620.158 206.851 617.862 215.751L622.703 217ZM633.103 199.8L635.926 203.927C639.733 201.322 646.489 199.6 657.103 199.6V194.6V189.6C645.851 189.6 636.607 191.345 630.28 195.673L633.103 199.8ZM657.103 194.6V199.6C662.287 199.6 665.247 200.675 666.847 201.978C668.25 203.12 669.303 205.007 669.303 208.6H674.303H679.303C679.303 202.859 677.49 197.747 673.159 194.222C669.026 190.858 663.386 189.6 657.103 189.6V194.6ZM674.303 208.6H669.303C669.303 209.524 669.093 211.716 668.553 215.493L673.503 216.2L678.453 216.907C678.98 213.218 679.303 210.343 679.303 208.6H674.303ZM673.503 216.2L668.61 215.171C656.582 272.369 649.333 320.494 646.913 359.49L651.903 359.8L656.893 360.11C659.273 321.773 666.424 274.164 678.396 217.229L673.503 216.2ZM651.903 359.8L646.913 359.488C646.424 367.304 644.174 371.604 641.266 373.828L644.303 377.8L647.34 381.772C653.498 377.063 656.315 369.362 656.893 360.112L651.903 359.8ZM644.303 377.8L641.266 373.828C638.023 376.308 632.286 378 623.103 378V383V388C633.12 388 641.516 386.226 647.34 381.772L644.303 377.8Z" fill="white" mask="url(#path-1-outside-1_2345_38)"/>
</svg>
